<svg width="55" height="54" viewBox="0 0 55 54" fill="none" xmlns="http://www.w3.org/2000/svg">
<rect width="55" height="54" fill="#C4C4C4"/>
<g clip-path="url(#clip0)">
<rect x="-227" y="-1624" width="320" height="3687" fill="white"/>
<rect x="-210.5" y="-99.5" width="287" height="253" rx="9.5" fill="white" stroke="#E8E8E8"/>
<path d="M27.3174 0.75C12.3691 0.75 0.102015 10.9608 0.00121745 23.5202C-0.069341 31.2817 2.92435 36.8659 9.68789 41.6034C9.78387 41.6922 9.87472 41.7864 9.96003 41.8856C10.1616 44.7482 8.38759 47.9335 4.68831 51.5219L4.42624 51.7738C4.27978 51.92 4.18186 52.1078 4.14579 52.3116C4.10973 52.5153 4.13726 52.7253 4.22465 52.9129C4.30562 53.0878 4.43506 53.2359 4.59764 53.3395C4.76022 53.4431 4.9491 53.498 5.1419 53.4975H5.27294C13.0243 52.8927 20.9369 47.1976 22.3481 46.1292L22.963 46.0687C23.8601 46.1796 26.4304 46.4316 27.3577 46.4316C42.4169 46.4316 54.6639 36.1401 54.6639 23.5807C54.6639 11.0213 42.3766 0.75 27.3174 0.75ZM27.2469 44.2846C26.38 44.2846 23.5879 44.083 23.0738 43.9923C22.9635 43.9772 22.8516 43.9772 22.7412 43.9923L21.7332 44.1535C21.5648 44.1827 21.4058 44.2518 21.2695 44.3551C21.199 44.4156 14.7883 49.395 7.9844 51.0078C10.9378 47.6411 12.2683 44.4257 11.9357 41.4219C11.9346 41.342 11.9175 41.2632 11.8853 41.1901C11.6906 40.7556 11.3931 40.3751 11.0184 40.0813L10.9075 39.9906C4.60767 35.6059 1.9567 30.687 2.01717 23.5404C2.12805 12.0797 13.4678 2.76596 27.3174 2.76596C41.167 2.76596 52.6479 12.0797 52.6479 23.5303C52.6479 34.9809 41.2578 44.2846 27.2469 44.2846Z" fill="#E30611"/>
<path d="M15.7258 20.2341C14.9283 20.2341 14.1488 20.4705 13.4858 20.9136C12.8227 21.3566 12.3059 21.9863 12.0008 22.723C11.6956 23.4598 11.6157 24.2705 11.7713 25.0526C11.9269 25.8347 12.3109 26.5531 12.8748 27.117C13.4387 27.6808 14.1571 28.0649 14.9392 28.2204C15.7213 28.376 16.532 28.2962 17.2687 27.991C18.0054 27.6858 18.6351 27.169 19.0782 26.506C19.5212 25.8429 19.7577 25.0634 19.7577 24.266C19.7577 23.1967 19.3329 22.1711 18.5768 21.415C17.8206 20.6589 16.7951 20.2341 15.7258 20.2341ZM15.7258 26.2819C15.327 26.2819 14.9373 26.1637 14.6058 25.9422C14.2742 25.7207 14.0159 25.4058 13.8633 25.0375C13.7107 24.6691 13.6708 24.2637 13.7485 23.8727C13.8263 23.4816 14.0183 23.1224 14.3003 22.8405C14.5822 22.5586 14.9414 22.3665 15.3325 22.2888C15.7235 22.211 16.1289 22.2509 16.4972 22.4035C16.8656 22.5561 17.1805 22.8145 17.402 23.146C17.6235 23.4775 17.7417 23.8673 17.7417 24.266C17.7417 24.8006 17.5293 25.3134 17.1513 25.6915C16.7732 26.0695 16.2604 26.2819 15.7258 26.2819Z" fill="#E30611"/>
<path d="M26.8132 20.2341C26.0157 20.2341 25.2362 20.4705 24.5732 20.9136C23.9101 21.3566 23.3933 21.9863 23.0882 22.723C22.783 23.4598 22.7031 24.2705 22.8587 25.0526C23.0143 25.8347 23.3983 26.5531 23.9622 27.117C24.5261 27.6808 25.2445 28.0649 26.0266 28.2204C26.8087 28.376 27.6194 28.2962 28.3561 27.991C29.0928 27.6858 29.7225 27.169 30.1656 26.506C30.6086 25.8429 30.8451 25.0634 30.8451 24.266C30.8451 23.1967 30.4203 22.1711 29.6642 21.415C28.908 20.6589 27.8825 20.2341 26.8132 20.2341ZM26.8132 26.2819C26.4144 26.2819 26.0247 26.1637 25.6932 25.9422C25.3616 25.7207 25.1033 25.4058 24.9507 25.0375C24.7981 24.6691 24.7582 24.2637 24.836 23.8727C24.9137 23.4816 25.1057 23.1224 25.3877 22.8405C25.6696 22.5586 26.0288 22.3665 26.4199 22.2888C26.8109 22.211 27.2163 22.2509 27.5846 22.4035C27.953 22.5561 28.2679 22.8145 28.4894 23.146C28.7109 23.4775 28.8291 23.8673 28.8291 24.266C28.8291 24.8006 28.6167 25.3134 28.2387 25.6915C27.8606 26.0695 27.3478 26.2819 26.8132 26.2819Z" fill="#E30611"/>
<path d="M37.9006 20.2341C37.1031 20.2341 36.3236 20.4705 35.6606 20.9136C34.9975 21.3566 34.4807 21.9863 34.1756 22.723C33.8704 23.4598 33.7906 24.2705 33.9461 25.0526C34.1017 25.8347 34.4857 26.5531 35.0496 27.117C35.6135 27.6808 36.3319 28.0649 37.114 28.2204C37.8961 28.376 38.7068 28.2962 39.4435 27.991C40.1802 27.6858 40.8099 27.169 41.253 26.506C41.696 25.8429 41.9325 25.0634 41.9325 24.266C41.9325 23.1967 41.5077 22.1711 40.7516 21.415C39.9954 20.6589 38.9699 20.2341 37.9006 20.2341ZM37.9006 26.2819C37.5018 26.2819 37.1121 26.1637 36.7806 25.9422C36.449 25.7207 36.1907 25.4058 36.0381 25.0375C35.8855 24.6691 35.8456 24.2637 35.9234 23.8727C36.0011 23.4816 36.1931 23.1224 36.4751 22.8405C36.757 22.5586 37.1162 22.3665 37.5073 22.2888C37.8983 22.211 38.3037 22.2509 38.672 22.4035C39.0404 22.5561 39.3553 22.8145 39.5768 23.146C39.7983 23.4775 39.9165 23.8673 39.9165 24.266C39.9165 24.8006 39.7041 25.3134 39.3261 25.6915C38.948 26.0695 38.4352 26.2819 37.9006 26.2819Z" fill="#E30611"/>
</g>
<defs>
<clipPath id="clip0">
<rect x="-227" y="-1624" width="320" height="3687" fill="white"/>
</clipPath>
</defs>
</svg>
