<svg width="60" height="60" viewBox="0 0 60 60" fill="none" xmlns="http://www.w3.org/2000/svg">
<g id="Group 36">
<g id="Group 6">
<g id="Group 3">
<path id="Vector" d="M47.7565 19.0034C47.5203 15.9928 46.266 13.1523 44.2001 10.9496C42.1342 8.74683 39.3798 7.31317 36.3905 6.88458C33.4012 6.45599 30.355 7.058 27.7534 8.59154C25.1519 10.1251 23.15 12.4987 22.0773 15.3217C21.2369 15.0738 20.365 14.9487 19.4888 14.9505C17.1574 14.9525 14.9134 15.8377 13.2084 17.4278C11.5035 19.0179 10.4643 21.1949 10.3 23.5205C7.7469 24.2378 5.53752 25.8506 4.07628 28.0637C2.61504 30.2767 1.99967 32.942 2.34277 35.5717C2.68588 38.2013 3.96453 40.6194 5.94468 42.3835C7.92484 44.1475 10.474 45.1394 13.1257 45.1776H18.6328C18.9063 45.1776 19.1687 45.069 19.3621 44.8756C19.5555 44.6822 19.6641 44.4199 19.6641 44.1464C19.6641 43.8728 19.5555 43.6105 19.3621 43.4171C19.1687 43.2237 18.9063 43.1151 18.6328 43.1151H13.1257C10.9229 43.06 8.81743 42.1963 7.21057 40.6886C5.60371 39.1808 4.60786 37.1345 4.41285 34.9397C4.21784 32.7449 4.83729 30.555 6.15315 28.7876C7.46902 27.0202 9.38927 25.7988 11.5478 25.3562C11.7881 25.3123 12.005 25.1845 12.1598 24.9957C12.3147 24.8068 12.3975 24.5691 12.3935 24.3249C12.3935 24.3249 12.3935 24.2012 12.3935 24.1909C12.4094 22.3082 13.1601 20.5063 14.4855 19.1692C15.811 17.8322 17.6064 17.0659 19.4888 17.0337C20.1592 17.0356 20.8258 17.1329 21.4689 17.3224C21.3749 17.8032 21.3061 18.2886 21.2626 18.7766C21.2398 19.0486 21.3257 19.3187 21.5016 19.5275C21.6775 19.7362 21.9291 19.8667 22.2011 19.8904H22.2836C22.5434 19.8912 22.7939 19.7939 22.9851 19.618C23.1763 19.4421 23.2941 19.2005 23.3149 18.9416C23.3587 18.4388 23.4345 17.9393 23.5418 17.4462C23.5521 17.3744 23.5521 17.3014 23.5418 17.2296C23.6112 17.1441 23.6637 17.0461 23.6965 16.9409C24.4123 14.4556 25.964 12.2936 28.0895 10.8199C30.2149 9.34633 32.7838 8.65147 35.3623 8.8527C37.9408 9.05394 40.3708 10.1389 42.2418 11.9245C44.1129 13.71 45.3104 16.0866 45.632 18.6528C45.0882 18.6217 44.5426 18.6424 44.0026 18.7147C43.8672 18.7323 43.7365 18.7764 43.6181 18.8445C43.4998 18.9126 43.396 19.0033 43.3126 19.1115C43.1444 19.3301 43.0698 19.6065 43.1054 19.88C43.1409 20.1536 43.2837 20.4017 43.5022 20.57C43.7208 20.7383 43.9972 20.8128 44.2708 20.7773C44.9989 20.6878 45.7365 20.7122 46.4571 20.8495H46.5705C49.2133 21.3433 51.5916 22.7681 53.2739 24.8652C54.9563 26.9624 55.8313 29.593 55.7402 32.28C55.6491 34.967 54.598 37.5324 52.7776 39.5108C50.9571 41.4892 48.4879 42.7497 45.8177 43.0635L43.8067 43.146H40.2796C40.0061 43.146 39.7438 43.2547 39.5504 43.4481C39.357 43.6415 39.2483 43.9038 39.2483 44.1773C39.2483 44.4508 39.357 44.7131 39.5504 44.9065C39.7438 45.0999 40.0061 45.2086 40.2796 45.2086H43.8479L45.9724 45.1261C49.0767 44.7866 51.9626 43.366 54.1249 41.1129C56.2871 38.8597 57.5879 35.9178 57.7994 32.8022C58.0108 29.6866 57.1195 26.5958 55.2816 24.0712C53.4436 21.5466 50.7761 19.749 47.7462 18.9931L47.7565 19.0034Z" fill="#E30611"/>
</g>
<g id="&#208;&#161;&#208;&#187;&#208;&#190;&#208;&#185; 2">
<g id="icons">
<path id="Vector_2" d="M29.7253 28.6463C29.54 28.492 29.3065 28.4075 29.0653 28.4075C28.8241 28.4075 28.5906 28.492 28.4053 28.6463L22.2175 33.8028C22.0069 33.9778 21.8745 34.2294 21.8493 34.5021C21.8242 34.7748 21.9084 35.0463 22.0835 35.2569C22.2585 35.4675 22.5101 35.6 22.7828 35.6251C23.0555 35.6503 23.327 35.566 23.5376 35.391L28.034 31.6371L28.034 52.1289C28.034 52.4024 28.1427 52.6647 28.3361 52.8581C28.5295 53.0515 28.7918 53.1602 29.0653 53.1602C29.3388 53.1602 29.6011 53.0515 29.7945 52.8581C29.9879 52.6647 30.0966 52.4024 30.0966 52.1289L30.0966 31.6371L34.593 35.391C34.8036 35.566 35.0752 35.6503 35.3479 35.6251C35.6206 35.6 35.8721 35.4675 36.0472 35.2569C36.2222 35.0463 36.3064 34.7748 36.2813 34.5021C36.2561 34.2294 36.1237 33.9778 35.9131 33.8028L29.7253 28.6463Z" fill="#E30611"/>
</g>
</g>
</g>
</g>
</svg>
