<svg width="60" height="60" viewBox="0 0 60 60" fill="none" xmlns="http://www.w3.org/2000/svg">
<path d="M53.9805 50.9194C53.3192 48.7551 49.7722 46.9115 46.3253 45.178C45.4235 44.7171 44.5518 44.2762 43.7902 43.8454C43.5577 43.7125 43.2819 43.6775 43.0236 43.7479C42.7652 43.8184 42.5454 43.9886 42.4125 44.2211C42.2796 44.4536 42.2446 44.7295 42.315 44.9878C42.3855 45.2462 42.5557 45.466 42.7883 45.5989C43.5698 46.0297 44.4716 46.4907 45.3934 46.9616C48.0287 48.3143 51.6359 50.158 52.0467 51.5106C52.8984 54.3263 52.9385 54.727 52.9385 55.5186C52.9551 55.667 52.9272 55.817 52.8583 55.9495C52.2759 56.1168 51.6652 56.1612 51.0647 56.0797H50.1128H9.33166C8.59019 56.0797 7.56815 56.0797 7.32767 55.8693C7.24966 55.7581 7.21088 55.6242 7.21745 55.4885C7.29761 55.1178 7.59821 53.7952 8.21945 51.4806C8.67035 49.7271 13.1292 47.192 21.4157 43.9656C22.5793 43.5794 23.6176 42.8872 24.4217 41.9616C24.5811 41.749 24.6496 41.4818 24.612 41.2187C24.5744 40.9557 24.4339 40.7183 24.2213 40.5589C24.0087 40.3994 23.7415 40.331 23.4784 40.3685C23.2153 40.4061 22.978 40.5467 22.8185 40.7593C22.2439 41.3845 21.5199 41.8534 20.7143 42.122C14.031 44.7171 7.0872 47.8133 6.25554 51.0197C5.54412 53.7852 5.25355 55.1379 5.25355 55.198C5.24909 55.2647 5.24909 55.3317 5.25355 55.3984C5.23524 55.7482 5.28794 56.0981 5.40849 56.427C5.52903 56.756 5.71491 57.057 5.95494 57.3122C6.80663 58.1438 8.06915 58.1138 9.41182 58.0938H50.173H51.0547H51.9064C52.3351 58.1397 52.7686 58.0996 53.1816 57.9757C53.5946 57.8518 53.9786 57.6467 54.3112 57.3723C54.549 57.1263 54.7332 56.8337 54.8522 56.5129C54.9712 56.1921 55.0224 55.8502 55.0026 55.5086C54.9625 54.4365 54.8723 53.8553 53.9805 50.9194Z" fill="#E30611"/>
<path d="M14.0606 33.9857H17.0666C17.3242 33.9968 17.5814 33.9555 17.8225 33.8642C18.0636 33.7729 18.2837 33.6336 18.4694 33.4547C18.7188 33.1265 18.9005 32.7519 19.0037 32.3528C19.1069 31.9537 19.1297 31.5381 19.0706 31.1301V31.0299C19.2276 31.1374 19.3955 31.2281 19.5716 31.3004C20.0614 32.4693 20.6655 33.587 21.3752 34.6371L21.9363 35.5188C22.5397 36.6019 23.3662 37.5445 24.3611 38.2843C25.9897 39.5872 27.9729 40.3693 30.0525 40.5288C30.226 40.5375 30.3999 40.5375 30.5735 40.5288C32.6183 40.42 34.5592 39.5933 36.0544 38.1942C36.9532 37.4537 37.7073 36.5535 38.2788 35.5389C38.4792 35.2082 38.6796 34.8976 38.87 34.597C39.5876 33.5413 40.1984 32.4168 40.6936 31.2403C40.8411 31.1773 40.982 31.1001 41.1145 31.0098V31.1C41.0537 31.508 41.0756 31.9241 41.1789 32.3234C41.2822 32.7228 41.4647 33.0973 41.7157 33.4246C41.8302 33.5411 41.962 33.6391 42.1064 33.7152C42.0363 36.0699 41.4551 40.639 39.2407 41.4306C38.7409 41.0817 38.1469 40.893 37.5374 40.8895C37.3013 40.8909 37.0662 40.9177 36.836 40.9697L31.9663 42.132C31.2478 42.3013 30.6167 42.729 30.1933 43.3337C29.7699 43.9384 29.5838 44.6777 29.6705 45.4108C29.7572 46.1439 30.1106 46.8194 30.6633 47.3087C31.2161 47.798 31.9295 48.0667 32.6677 48.0638C32.9003 48.0618 33.1321 48.035 33.359 47.9836L38.2287 46.8213C38.613 46.7306 38.9756 46.565 39.2958 46.3341C39.6161 46.1032 39.8877 45.8115 40.0952 45.4756C40.3027 45.1397 40.442 44.7662 40.5052 44.3765C40.5683 43.9867 40.554 43.5884 40.4632 43.2041V43.1039C43.5593 41.5107 44.0704 36.2603 44.1405 33.9557H46.1445C46.966 33.9104 47.7631 33.6602 48.4632 33.2279C49.1633 32.7956 49.744 32.195 50.1525 31.4808C50.8015 30.0503 51.1373 28.4976 51.1373 26.9267C51.1373 25.3559 50.8015 23.8031 50.1525 22.3726C49.7396 21.6646 49.1572 21.0704 48.4575 20.6436C47.7578 20.2168 46.9629 19.9708 46.1445 19.9278C46.2663 17.7504 45.9427 15.571 45.1933 13.5231C44.444 11.4751 43.2847 9.60149 41.7863 8.01694C40.288 6.4324 38.4821 5.17019 36.4792 4.30756C34.4763 3.44494 32.3184 3 30.1376 3C27.9568 3 25.799 3.44494 23.7961 4.30756C21.7931 5.17019 19.9873 6.4324 18.4889 8.01694C16.9906 9.60149 15.8313 11.4751 15.0819 13.5231C14.3325 15.571 14.0089 17.7504 14.1308 19.9278C13.3104 19.9729 12.5143 20.222 11.8144 20.6524C11.1146 21.0828 10.5332 21.6809 10.1228 22.3927C9.47225 23.8246 9.13568 25.379 9.13568 26.9518C9.13568 28.5245 9.47225 30.079 10.1228 31.5108C10.5255 32.215 11.0954 32.8091 11.7822 33.2407C12.469 33.6724 13.2515 33.9282 14.0606 33.9857ZM37.7678 44.8975L32.8981 46.0598C32.7698 46.0911 32.6366 46.0968 32.5061 46.0764C32.3756 46.0561 32.2504 46.0101 32.1377 45.9412C32.025 45.8723 31.9271 45.7818 31.8495 45.6749C31.7719 45.568 31.7163 45.4468 31.6857 45.3183C31.6544 45.19 31.6487 45.0568 31.6691 44.9263C31.6894 44.7958 31.7354 44.6706 31.8043 44.5579C31.8732 44.4452 31.9637 44.3473 32.0706 44.2697C32.1775 44.1922 32.2987 44.1365 32.4272 44.1059L37.3069 42.9536C37.3834 42.9432 37.4609 42.9432 37.5374 42.9536C37.8031 42.9231 38.0701 42.9993 38.2796 43.1656C38.4891 43.3319 38.624 43.5746 38.6546 43.8404C38.6851 44.1061 38.6089 44.3731 38.4426 44.5826C38.2763 44.7921 38.0336 44.9271 37.7678 44.9576V44.8975ZM40.3029 29.0359C40.1948 29.2365 40.0164 29.39 39.8019 29.4668C39.6217 29.4923 39.4519 29.5664 39.3107 29.6812C39.1695 29.7959 39.0621 29.9469 39.0003 30.1181C38.526 31.3266 37.9141 32.4764 37.1766 33.5449L36.5654 34.5469C36.1176 35.3662 35.5193 36.0937 34.8019 36.6912C32.2168 38.8354 30.3831 38.5849 30.323 38.5749C30.2599 38.5651 30.1957 38.5651 30.1326 38.5749C28.4626 38.4256 26.8734 37.7879 25.5635 36.7413C24.777 36.1431 24.1221 35.3893 23.6397 34.5268C23.4493 34.2062 23.2589 33.9056 23.0686 33.605C22.3288 32.534 21.7231 31.3765 21.265 30.1582C21.1883 29.9748 21.0627 29.8162 20.9019 29.6995C20.741 29.5829 20.5512 29.5127 20.3531 29.4968C20.1366 29.4236 19.957 29.2691 19.8521 29.066C19.772 28.9256 19.659 28.8067 19.5229 28.7195C19.3868 28.6323 19.2316 28.5793 19.0706 28.565V25.0179C19.1938 25.0365 19.3196 25.0285 19.4395 24.9944C19.5594 24.9603 19.6705 24.9009 19.7655 24.8202C19.8605 24.7395 19.937 24.6393 19.99 24.5265C20.0429 24.4137 20.0711 24.2908 20.0726 24.1662C20.1793 22.0076 20.6643 19.8845 21.5054 17.8937C23.2589 13.7956 26.1948 11.7214 30.333 11.7214C40.353 11.7214 40.353 23.4548 40.353 23.9558C40.353 24.4568 41.1345 24.9578 41.1345 24.9578V28.585C40.9695 28.5859 40.8072 28.6275 40.6621 28.7061C40.517 28.7848 40.3936 28.8981 40.3029 29.0359ZM48.3188 23.2544C48.8429 24.4183 49.1139 25.6803 49.1139 26.9568C49.1139 28.2333 48.8429 29.4952 48.3188 30.6592C48.071 31.0301 47.7437 31.3413 47.3607 31.5701C46.9777 31.7988 46.5485 31.9394 46.1044 31.9818H43.0984C43.0823 31.7014 43.0823 31.4204 43.0984 31.1401V22.8135C43.0825 22.5332 43.0825 22.2522 43.0984 21.9718H46.1044C46.5469 22.0081 46.9758 22.1419 47.3604 22.3637C47.7451 22.5854 48.0758 22.8896 48.3288 23.2544H48.3188ZM30.0825 5.9299C33.7836 5.99177 37.3159 7.48959 39.9333 10.107C42.5508 12.7245 44.0486 16.2567 44.1104 19.9578H43.1084C42.6917 19.9467 42.2819 20.0658 41.9361 20.2985C41.1145 16.0701 38.5293 9.60724 30.4031 9.60724C22.277 9.60724 19.4914 16.3106 18.5496 20.6292L18.4594 20.529C18.2737 20.3501 18.0536 20.2108 17.8125 20.1195C17.5713 20.0282 17.3142 19.9868 17.0566 19.9979H16.0546C16.1087 16.2889 17.6042 12.7465 20.2243 10.1208C22.8445 7.49501 26.3836 5.99198 30.0925 5.9299H30.0825ZM11.8462 23.2745C12.0914 22.9018 12.4182 22.5899 12.8019 22.3625C13.1856 22.135 13.6161 21.998 14.0606 21.9618H17.0666C17.0825 22.2421 17.0825 22.5232 17.0666 22.8035V31.1301C17.0827 31.4138 17.0827 31.6981 17.0666 31.9818H14.0606C13.6195 31.9464 13.1921 31.8117 12.8104 31.5879C12.4287 31.3641 12.1025 31.0569 11.8562 30.6892C11.3291 29.5246 11.0556 28.2612 11.0539 26.9829C11.0522 25.7045 11.3223 24.4405 11.8462 23.2745Z" fill="#E30611"/>
</svg>
