<svg width="60" height="60" viewBox="0 0 60 60" fill="none" xmlns="http://www.w3.org/2000/svg">
<g id="Group 33">
<g id="Group 4.1">
<path id="Vector" d="M58.297 48.6715C58.1694 48.097 57.9236 47.5554 57.5752 47.0811C57.2268 46.6068 56.7835 46.2104 56.2734 45.9169L43.7293 37.3457C43.0911 36.904 42.3334 36.6674 41.5574 36.6676C40.9652 36.6655 40.381 36.8036 39.8525 37.0706C39.324 37.3376 38.8662 37.726 38.5167 38.2039L35.2641 42.8126C35.0334 43.176 34.9189 43.6009 34.9357 44.031C33.6855 44.2111 30.0833 44.1051 24.1608 38.1827C18.4397 32.4721 15.6851 28.2661 16.0771 25.6704C16.1382 25.6304 16.195 25.5842 16.2466 25.5326C16.533 25.4672 16.8033 25.3447 17.0412 25.1724L21.5333 21.7715C22.3229 21.1578 22.839 20.2577 22.9698 19.2663C23.1007 18.2748 22.8359 17.2718 22.2326 16.4742L13.2483 4.21606C11.5213 1.86404 9.48715 1.62037 7.30464 3.49563C5.50816 5.19219 3.9538 7.128 2.68535 9.24855C2.17924 10.1006 1.9532 11.09 2.03907 12.0773C1.27331 15.7587 1.32394 19.5633 2.1874 23.223C3.82958 30.9041 8.25817 38.2886 15.346 45.154C27.2121 56.6387 37.5949 58.355 42.7863 58.355C44.8695 58.4128 46.9454 58.0859 48.9101 57.3909C49.8534 57.4103 50.7817 57.1525 51.5799 56.6493C53.6605 55.3114 55.5465 53.6928 57.1846 51.8393C57.5847 51.4208 57.891 50.9218 58.0828 50.3755C58.2746 49.8292 58.3477 49.2482 58.297 48.6715ZM55.553 50.5149C54.0776 52.1727 52.3848 53.6232 50.5205 54.827C50.3312 54.9361 50.1326 55.0282 49.9272 55.1025C48.2026 54.4322 46.6074 53.468 45.2125 52.2525C45.1251 52.1436 45.017 52.0532 44.8945 51.9863C44.772 51.9193 44.6375 51.8773 44.4986 51.8625C44.3598 51.8477 44.2194 51.8605 44.0856 51.9002C43.9517 51.9398 43.827 52.0055 43.7187 52.0935C43.502 52.2699 43.3637 52.5247 43.3339 52.8025C43.3041 53.0802 43.3853 53.3586 43.5597 53.5768C44.4477 54.5219 45.4949 55.3037 46.6534 55.8865C45.3817 56.1512 44.0853 56.2791 42.7863 56.2679C37.9551 56.2679 28.155 54.6257 16.8187 43.6708C0.672352 28.033 3.73422 14.0056 4.10504 12.5011C4.13683 12.3617 4.13683 12.2168 4.10504 12.0773C4.03486 11.4833 4.16539 10.8829 4.47585 10.3716C5.62892 8.47131 7.02509 6.72964 8.62898 5.19076C9.00495 4.79986 9.50106 4.54622 10.0381 4.47032C10.197 4.47032 10.6844 4.47032 11.479 5.5298L20.4633 17.7667C20.725 18.1137 20.8434 18.5479 20.7941 18.9797C20.7448 19.4115 20.5316 19.8079 20.1984 20.087L15.7592 23.4561H15.6745C14.4849 22.593 13.4035 21.5898 12.4537 20.4683C12.3778 20.3515 12.2797 20.2507 12.165 20.1717C12.0502 20.0928 11.921 20.0372 11.7847 20.0082C11.6485 19.9791 11.5078 19.9772 11.3708 20.0026C11.2338 20.0279 11.1032 20.08 10.9863 20.1558C10.8694 20.2316 10.7686 20.3297 10.6897 20.4445C10.6107 20.5593 10.5552 20.6885 10.5261 20.8247C10.4971 20.961 10.4952 21.1016 10.5205 21.2386C10.5459 21.3756 10.5979 21.5063 10.6738 21.6232C11.6579 22.8567 12.8016 23.954 14.0747 24.8864C13.2271 28.3402 15.9075 32.9489 22.667 39.7189C28.0491 45.0904 31.9691 46.2241 34.3212 46.2241C35.0703 46.2513 35.815 46.0988 36.4931 45.7791C36.6335 45.7006 36.7542 45.591 36.846 45.4588C36.9378 45.3267 36.9982 45.1753 37.0228 45.0163C37.0358 44.8223 37.0358 44.6276 37.0228 44.4336C37.012 44.2784 37.012 44.1226 37.0228 43.9674L40.2012 39.4647C40.475 39.1343 40.8613 38.9168 41.2857 38.8542C41.7102 38.7916 42.1428 38.8883 42.5003 39.1256L55.0338 47.6968C55.7225 48.1735 56.0933 48.6185 56.1569 49.0211C56.1601 49.5792 55.9431 50.1159 55.553 50.5149Z" fill="#E30611"/>
<path id="Vector_2" d="M28.7161 14.5026C32.7489 15.7357 36.4196 17.9351 39.4089 20.9097C42.3983 23.8843 44.6159 27.544 45.8689 31.5707C45.9389 31.794 46.0807 31.9878 46.2724 32.1219C46.464 32.2561 46.6947 32.323 46.9284 32.3123C47.0338 32.3283 47.1409 32.3283 47.2463 32.3123C47.5145 32.2293 47.7389 32.0432 47.87 31.7949C48.0011 31.5465 48.0283 31.2563 47.9455 30.988C46.5913 26.63 44.1921 22.6692 40.9568 19.4506C37.7216 16.2319 33.7485 13.8532 29.3836 12.5214C29.1152 12.4423 28.8265 12.4726 28.5804 12.6055C28.3343 12.7385 28.1507 12.9635 28.0698 13.2313C28 13.4856 28.0275 13.7568 28.147 13.992C28.2665 14.2271 28.4695 14.4092 28.7161 14.5026Z" fill="#E30611"/>
<path id="Vector_3" d="M30.1263 6.69422C36.1349 8.11942 41.5983 11.2641 45.8486 15.744C50.099 20.2239 52.9523 25.845 54.0597 31.9202C54.1049 32.167 54.2361 32.3898 54.4301 32.5489C54.6242 32.708 54.8683 32.7931 55.1192 32.789H55.3099C55.447 32.7647 55.5779 32.7136 55.6952 32.6387C55.8126 32.5638 55.914 32.4665 55.9937 32.3524C56.0734 32.2382 56.1298 32.1095 56.1597 31.9735C56.1897 31.8376 56.1925 31.6971 56.1681 31.56C55.0016 25.0679 51.9667 19.0571 47.4352 14.264C42.9038 9.47094 37.0725 6.10384 30.656 4.57528C30.5169 4.5405 30.3723 4.53345 30.2304 4.55455C30.0886 4.57566 29.9523 4.62452 29.8293 4.6983C29.7063 4.77209 29.5991 4.86938 29.5137 4.98461C29.4283 5.09984 29.3665 5.23075 29.3317 5.36988C29.2969 5.50901 29.2899 5.65362 29.311 5.79547C29.3321 5.93733 29.3809 6.07365 29.4547 6.19662C29.5285 6.3196 29.6258 6.42684 29.741 6.51222C29.8562 6.5976 29.9872 6.65944 30.1263 6.69422Z" fill="#E30611"/>
</g>
</g>
</svg>
