<svg width="22" height="28" viewBox="0 0 22 28" fill="none" xmlns="http://www.w3.org/2000/svg">
<path fill-rule="evenodd" clip-rule="evenodd" d="M5.36101 13.7818C5.31484 13.3434 4.30774 13.3419 4.11792 11.7413C4.01606 10.8822 4.42117 10.3985 4.66655 10.2465C4.66655 10.2465 4.05541 8.86006 4.05541 7.48511C4.05541 3.39478 6.09021 0 11.0001 0C13.6506 0 14.4724 1.87013 14.4724 1.87013C16.8406 1.87013 17.9448 4.45421 17.9448 7.48511C17.9448 8.99595 17.3336 10.2465 17.3336 10.2465C17.579 10.3985 17.9841 10.8822 17.8823 11.7413C17.6925 13.3419 17.0489 13.7473 16.6392 13.7818C16.4818 15.2742 14.9933 17.1858 14.4724 17.4645V19.9587C15.1521 22.1574 18.6198 22.2144 21.3661 23.6568C19.8001 25 14.8739 27.6286 11.0001 27.6286C7.12625 27.6286 2.6001 25.2 0.602356 23.6735C3.35356 22.2148 6.8455 22.1659 7.52776 19.9587V17.4645C7.0069 17.1881 5.51843 15.2765 5.36101 13.7818Z" fill="white"/>
</svg>
